<mxfile host="app.diagrams.net" modified="2024-06-08T16:46:12.360Z" agent="Mozilla/5.0 (Windows NT 10.0; Win64; x64) AppleWebKit/537.36 (KHTML, like Gecko) Chrome/109.0.0.0 Safari/537.36" version="24.5.2" etag="Qbz9sBnbjjN10FPxdSfV" type="github">
  <diagram name="PÃ¡gina-1" id="CKlld2_4rootLrVbZU_o">
    <mxGraphModel>
      <root>
        <mxCell id="0" />
        <mxCell id="1" parent="0" />
      </root>
    </mxGraphModel>
  </diagram>
</mxfile>
